<svg width="19" height="19" viewBox="0 0 19 19" fill="none" xmlns="http://www.w3.org/2000/svg">
<path d="M18.156 3.106C17.9245 2.50818 17.5707 1.96528 17.1173 1.51206C16.6639 1.05884 16.1209 0.705271 15.523 0.474C14.8233 0.211357 14.0842 0.0693411 13.337 0.0539999C12.374 0.0119999 12.069 0 9.627 0C7.185 0 6.872 -1.00583e-07 5.917 0.0539999C5.17039 0.0685567 4.43176 0.210601 3.733 0.474C3.13494 0.705001 2.59176 1.05847 2.13833 1.51173C1.6849 1.96499 1.33123 2.50802 1.1 3.106C0.837305 3.80561 0.695615 4.54484 0.681 5.292C0.638 6.254 0.625 6.559 0.625 9.002C0.625 11.444 0.625 11.755 0.681 12.712C0.696 13.46 0.837 14.198 1.1 14.899C1.33188 15.4968 1.6859 16.0396 2.13944 16.4928C2.59298 16.946 3.13606 17.2996 3.734 17.531C4.43143 17.8042 5.17037 17.9564 5.919 17.981C6.882 18.023 7.187 18.036 9.629 18.036C12.071 18.036 12.384 18.036 13.339 17.981C14.0861 17.9658 14.8252 17.8241 15.525 17.562C16.1228 17.3302 16.6656 16.9763 17.119 16.523C17.5723 16.0696 17.9262 15.5268 18.158 14.929C18.421 14.229 18.562 13.491 18.577 12.743C18.62 11.781 18.633 11.476 18.633 9.033C18.633 6.59 18.633 6.28 18.577 5.323C18.5654 4.56527 18.4229 3.81525 18.156 3.106ZM16.938 12.638C16.9316 13.2143 16.8264 13.7852 16.627 14.326C16.4768 14.7149 16.2469 15.068 15.9521 15.3627C15.6572 15.6574 15.304 15.8871 14.915 16.037C14.3802 16.2354 13.8154 16.3406 13.245 16.348C12.295 16.392 12.027 16.403 9.591 16.403C7.153 16.403 6.904 16.403 5.936 16.348C5.36593 16.341 4.80133 16.2358 4.267 16.037C3.87669 15.888 3.522 15.6587 3.22589 15.364C2.92978 15.0692 2.69884 14.7156 2.548 14.326C2.35145 13.791 2.24631 13.2268 2.237 12.657C2.194 11.707 2.184 11.439 2.184 9.003C2.184 6.566 2.184 6.317 2.237 5.348C2.24346 4.77202 2.34866 4.20142 2.548 3.661C2.853 2.872 3.478 2.251 4.267 1.949C4.80159 1.75114 5.36602 1.64596 5.936 1.638C6.887 1.595 7.154 1.583 9.591 1.583C12.028 1.583 12.278 1.583 13.245 1.638C13.8154 1.64486 14.3804 1.75007 14.915 1.949C15.3039 2.09927 15.6571 2.3292 15.952 2.62403C16.2468 2.91886 16.4767 3.27207 16.627 3.661C16.8236 4.19595 16.9287 4.76016 16.938 5.33C16.981 6.281 16.992 6.548 16.992 8.985C16.992 11.421 16.992 11.683 16.949 12.639H16.938V12.638Z" fill="#0B141D"/>
</svg>
